<?xml version="1.0" encoding="UTF-8" standalone="no"?>
<!-- Generator: Adobe Illustrator 18.1.1, SVG Export Plug-In . SVG Version: 6.00 Build 0)  -->

<svg
   xmlns:dc="http://purl.org/dc/elements/1.1/"
   xmlns:cc="http://creativecommons.org/ns#"
   xmlns:rdf="http://www.w3.org/1999/02/22-rdf-syntax-ns#"
   xmlns:svg="http://www.w3.org/2000/svg"
   xmlns="http://www.w3.org/2000/svg"
   xmlns:sodipodi="http://sodipodi.sourceforge.net/DTD/sodipodi-0.dtd"
   xmlns:inkscape="http://www.inkscape.org/namespaces/inkscape"
   version="1.1"
   id="Capa_1"
   x="0px"
   y="0px"
   viewBox="0 0 0.86483002 1.351758"
   xml:space="preserve"
   width="16.135593"
   height="25.220469"
   sodipodi:docname="icon.svg"
   inkscape:version="0.92.1 r15371"><metadata
     id="metadata71"><rdf:RDF><cc:Work
         rdf:about=""><dc:format>image/svg+xml</dc:format><dc:type
           rdf:resource="http://purl.org/dc/dcmitype/StillImage" /></cc:Work></rdf:RDF></metadata><defs
     id="defs69" /><sodipodi:namedview
     pagecolor="#ffffff"
     bordercolor="#666666"
     borderopacity="1"
     objecttolerance="10"
     gridtolerance="10"
     guidetolerance="10"
     inkscape:pageopacity="0"
     inkscape:pageshadow="2"
     inkscape:window-width="1920"
     inkscape:window-height="1017"
     id="namedview67"
     showgrid="false"
     inkscape:zoom="7.3750001"
     inkscape:cx="-24.912268"
     inkscape:cy="3.9966541"
     inkscape:window-x="-8"
     inkscape:window-y="-8"
     inkscape:window-maximized="1"
     inkscape:current-layer="g34" /><g
     id="g34"
     transform="translate(-19.826292,-20.601916)"><path
       d="m 20.579985,20.601916 h -0.642557 c -0.0615,0 -0.111136,0.04415 -0.111136,0.09847 v 1.154918 c 0,0.0543 0.04964,0.09837 0.111136,0.09837 h 0.642557 c 0.06138,0 0.111137,-0.04409 0.111137,-0.09837 v -1.154918 c 0,-0.05431 -0.04975,-0.09847 -0.111137,-0.09847 z m -0.479831,0.05978 h 0.317216 c 0.008,0 0.01452,0.0106 0.01452,0.02371 0,0.01311 -0.0065,0.02376 -0.01452,0.02376 h -0.317216 c -0.0081,0 -0.01447,-0.01065 -0.01447,-0.02376 0,-0.01311 0.0064,-0.02371 0.01447,-0.02371 z m 0.158609,1.194765 c -0.03912,0 -0.07096,-0.0282 -0.07096,-0.06285 0,-0.03467 0.03183,-0.06275 0.07096,-0.06275 0.03901,0 0.07084,0.02808 0.07084,0.06275 0,0.03467 -0.03183,0.06285 -0.07084,0.06285 z m 0.349103,-0.21521 H 19.909603 V 20.76805 h 0.698263 z"
       id="path2"
       inkscape:connector-curvature="0"
       style="fill:#ede7c7;stroke-width:0.05235775" /><g
       id="g4" /><g
       id="g6" /><g
       id="g8" /><g
       id="g10" /><g
       id="g12" /><g
       id="g14" /><g
       id="g16" /><g
       id="g18" /><g
       id="g20" /><g
       id="g22" /><g
       id="g24" /><g
       id="g26" /><g
       id="g28" /><g
       id="g30" /><g
       id="g32" /></g><g
     id="g36"
     transform="translate(-19.826292,-20.601916)" /><g
     id="g38"
     transform="translate(-19.826292,-20.601916)" /><g
     id="g40"
     transform="translate(-19.826292,-20.601916)" /><g
     id="g42"
     transform="translate(-19.826292,-20.601916)" /><g
     id="g44"
     transform="translate(-19.826292,-20.601916)" /><g
     id="g46"
     transform="translate(-19.826292,-20.601916)" /><g
     id="g48"
     transform="translate(-19.826292,-20.601916)" /><g
     id="g50"
     transform="translate(-19.826292,-20.601916)" /><g
     id="g52"
     transform="translate(-19.826292,-20.601916)" /><g
     id="g54"
     transform="translate(-19.826292,-20.601916)" /><g
     id="g56"
     transform="translate(-19.826292,-20.601916)" /><g
     id="g58"
     transform="translate(-19.826292,-20.601916)" /><g
     id="g60"
     transform="translate(-19.826292,-20.601916)" /><g
     id="g62"
     transform="translate(-19.826292,-20.601916)" /><g
     id="g64"
     transform="translate(-19.826292,-20.601916)" /></svg>