<svg xmlns="http://www.w3.org/2000/svg" viewBox="0 0 416 416"><path d="M297.776 47.561C276.72 27.721 240.64 23.193 208 55.833c-32.592-32.608-68.72-28.112-89.776-8.288-24.528 23.088-24.96 61.712-1.312 85.36L208 224.009l91.088-91.088c23.648-23.648 23.216-62.272-1.312-85.36zm-10 74.032L208 201.385l-79.776-79.776c-17.312-17.328-16.976-45.504.976-62.4 7.648-7.232 17.888-11.2 28.832-11.2 22.912 0 33.216 13.696 49.968 30.448 16.304-16.304 26.8-30.448 49.968-30.448 10.944 0 21.184 3.968 28.848 11.184 17.904 16.864 18.32 45.04.96 62.4zm100.88-73.584c-14.096 0-25.792 10.56-27.2 24.576l-10.128 100.016c-4.88 1.04-9.36 3.408-12.832 6.88l-80.816 75.232c-11.12 10.128-17.568 24.576-17.68 39.68v89.616h96v-42.176c0-6.512 2.736-12.848 7.696-17.552l60.72-61.28c7.472-7.552 11.584-17.552 11.584-28.16V75.353c0-15.072-12.272-27.344-27.344-27.344zM400 234.841c0 6.368-2.464 12.368-6.96 16.912l-60.528 61.088c-7.952 7.52-12.512 18.08-12.512 28.992v26.176h-64v-73.52c.08-10.608 4.608-20.768 12.528-27.968l81.072-75.504c2.176-2.176 5.152-3.248 8.304-2.928 1.744.16 4.256.784 6.4 2.928a10.364 10.364 0 0 1 3.056 7.36c0 2.768-1.104 5.392-2.784 7.088l-62.416 56.608 10.752 11.84 62.704-56.88c4.992-4.992 7.744-11.616 7.744-18.672 0-7.056-2.736-13.68-7.728-18.656a25.528 25.528 0 0 0-8.368-5.648l10.096-99.84a11.326 11.326 0 0 1 11.296-10.208c6.256 0 11.344 5.088 11.344 11.344v159.488zm-241.68 19.872l-80.816-75.232c-3.472-3.472-7.952-5.856-12.832-6.88L54.544 72.585c-1.408-14.016-13.104-24.576-27.2-24.576C12.272 48.009 0 60.281 0 75.353v159.488c0 10.608 4.112 20.608 11.584 28.144l60.72 61.28c4.96 4.704 7.696 11.056 7.696 17.568v42.176h96v-89.616c-.096-15.104-6.56-29.536-17.68-39.68zM160 368.009H96v-26.176c0-10.896-4.56-21.472-12.512-28.992L22.96 251.753c-4.496-4.544-6.96-10.544-6.96-16.912V75.353c0-6.256 5.088-11.344 11.344-11.344 5.84 0 10.704 4.384 11.296 10.176l10.096 99.84a26.032 26.032 0 0 0-8.368 5.648c-4.976 4.976-7.728 11.6-7.728 18.656 0 7.056 2.752 13.68 7.744 18.672l62.704 56.88 10.752-11.84-62.416-56.608c-1.696-1.696-2.784-4.304-2.784-7.088s1.088-5.392 3.056-7.36c2.128-2.144 4.656-2.768 6.4-2.928 3.168-.304 6.128.752 8.304 2.928l81.072 75.504c7.92 7.2 12.448 17.36 12.528 27.968v73.552z" fill="#fff"/></svg>