<svg xmlns="http://www.w3.org/2000/svg" viewBox="-90 1 511 511.998"><path d="M300.629 314.172c-15.77-20.52-36.938-36.617-60.719-46.414 16.703-18.48 28.031-41.332 33.781-68.176 26.465-16.047 35.149-49.707 37.696-75.816v-.004c1.293-13.32 2.156-30.785-2.727-47.73-5.273-18.27-16.73-32.954-31.437-40.298-13.73-6.847-29.832-6.48-42.864.383-3.925-6.047-8.011-12.289-16.82-17.941-12.144-7.785-26.824-13.38-42.457-16.184-30.414-5.476-61.95.465-86.523 16.309-3.52 2.27-6.875 4.699-10.118 7.043-6.02 4.355-11.703 8.468-17.804 11.18-7.188 3.199-17.008 4.328-22.742-.356a10 10 0 0 0-16.266 6.656c-3.563 32.535 9.187 66.903 33.43 90.989-2.598 20.332-6.868 85.847 36.457 133.949-23.782 9.793-44.95 25.89-60.723 46.414C10.973 339.965.5 370.824.5 403.426v77.972c0 16.872 13.73 30.598 30.61 30.598h269.214c16.871 0 30.598-13.726 30.598-30.598v-77.972c0-32.602-10.473-63.465-30.293-89.254zm-78.965 42.121l9.031 15.223c.246.418.207.949-.101 1.32l-40.551 49.031 4.559-14.82c.003-.012.003-.027.007-.04l33.02-107.413 18.363 36.812-18.422 5.153c-2.996.84-5.43 3.023-6.586 5.91s-.906 6.148.68 8.824zm-111.219-8.824a10.008 10.008 0 0 0-6.586-5.91l-18.422-5.153 18.364-36.808 37.578 122.261-40.543-49.023a1.162 1.162 0 0 1-.102-1.32l9.032-15.223a10.01 10.01 0 0 0 .68-8.824zm12.79-53.688c.32.192.648.38.968.57.473.282.945.563 1.426.84.598.348 1.203.688 1.808 1.028.282.156.563.32.848.476.215.121.43.235.649.352.59.324 1.187.644 1.789.965.441.234.89.468 1.34.699.601.312 1.203.625 1.812.93.172.09.348.175.52.261.292.149.59.286.882.43.727.356 1.453.715 2.192 1.063.16.074.324.148.488.222.496.235.996.465 1.496.692.274.125.54.254.813.375a160.08 160.08 0 0 0 3.437 1.5l-3.387 46.125-17.445-56.743.082.047c.094.059.188.114.281.168zm64.495 10.403c.618-.262 1.23-.532 1.844-.801.508-.223 1.016-.442 1.52-.668.336-.153.664-.309.996-.461.668-.305 1.34-.61 2.004-.926.504-.238 1-.484 1.5-.726.488-.239.98-.47 1.46-.711.196-.098.391-.2.583-.297.472-.235.937-.48 1.406-.719a202.951 202.951 0 0 0 3.34-1.77c.25-.136.508-.27.754-.406.36-.199.71-.406 1.066-.605.484-.274.973-.547 1.453-.824.63-.364 1.246-.73 1.867-1.102.125-.074.25-.145.372-.219.218-.129.437-.254.656-.387.004 0 .004 0 .008-.003l-17.442 56.738zm-19.636 5.683l6.836 93.09-9.215 29.98-4.399-14.312-4.812-15.656 6.836-93.102c.086.004.176.004.262.008a41.01 41.01 0 0 0 2.078.063h.054c.703 0 1.403-.024 2.102-.063.086-.004.172 0 .258-.008zM41.18 58.773c9.664 1.633 19.73-.48 27.582-3.972 8.008-3.559 14.816-8.485 21.406-13.25 3.168-2.297 6.164-4.461 9.23-6.442 20.364-13.125 46.657-18.023 72.149-13.433 13.074 2.347 25.246 6.957 35.195 13.332 5.235 3.363 7.621 7.035 10.922 12.125 1.766 2.719 3.762 5.8 6.383 9.082a10.004 10.004 0 0 0 14.539 1.16c7.887-7.168 19.828-8.668 29.707-3.742 9.715 4.847 17.422 15.035 21.148 27.941 3.942 13.684 3.16 28.7 2.04 40.25-1.567 16.035-6.649 42.824-23.086 56.957a165.311 165.311 0 0 0-1.907-5.258c-.062-.164-.133-.328-.195-.488a172.01 172.01 0 0 0-1.945-4.851c-.25-.59-.516-1.168-.766-1.754a165.447 165.447 0 0 0-1.55-3.516c-.317-.687-.65-1.363-.973-2.047-.5-1.05-.996-2.105-1.516-3.148-.363-.723-.738-1.438-1.11-2.156-.511-.989-1.023-1.981-1.55-2.958-.399-.734-.809-1.46-1.215-2.19-.531-.95-1.066-1.9-1.613-2.84a180.95 180.95 0 0 0-1.309-2.192 151.862 151.862 0 0 0-3.07-4.918 174.991 174.991 0 0 0-1.766-2.668c-.48-.715-.969-1.43-1.46-2.137a208.15 208.15 0 0 0-1.848-2.605c-.508-.696-1.012-1.395-1.528-2.086-.64-.856-1.289-1.707-1.945-2.555-.524-.672-1.043-1.348-1.578-2.016-.672-.847-1.363-1.68-2.051-2.515-.535-.645-1.07-1.293-1.613-1.934-.719-.84-1.453-1.668-2.188-2.496-.539-.61-1.074-1.223-1.62-1.82a161.583 161.583 0 0 0-2.38-2.535c-.52-.551-1.035-1.11-1.562-1.653-.606-.62-1.227-1.226-1.844-1.836 3.312-5.48 7.187-13.468 8.863-22.87.969-5.438-2.652-10.634-8.09-11.602-5.43-.973-10.632 2.652-11.601 8.09-2.125 11.918-9.664 20.96-9.867 21.203-.059.066-.106.14-.16.207-.141.172-.286.34-.415.52-14.18 19.968-37.648 32.972-62.195 36.519-14.73 2.125-29.851.847-43.586-4.375a82.353 82.353 0 0 1-3.613-1.473c-8.352-3.648-16.149-8.715-23.227-15.105C53.895 106.02 42.578 82.43 41.18 58.773zm32.582 90.016c.246.156.492.3.738.453a103.983 103.983 0 0 0 4.242 2.5c.188.106.375.207.563.309 1.254.687 2.52 1.355 3.797 1.988l.48.234a99.687 99.687 0 0 0 3.988 1.852c.102.047.203.086.309.133a98.121 98.121 0 0 0 4.258 1.734c12.043 4.578 24.781 6.762 37.539 6.762 31.613 0 63.297-13.414 84.469-37.024 18.523 19.098 32.132 43.207 38.746 68.891.082.328.187.649.304.961.035.106.082.207.125.309.059.148.114.297.18.441-6.371 27.156-19.344 49.344-38.629 66.023 0 0 0 .004-.004.004-.066.055-.133.11-.199.168a116.69 116.69 0 0 1-4.262 3.5l-.023.02a124.1 124.1 0 0 1-4.535 3.375c-.04.027-.075.055-.114.082a128.15 128.15 0 0 1-4.668 3.148c-.066.043-.132.09-.203.133a125.021 125.021 0 0 1-4.808 2.934c-.09.05-.18.105-.27.16a143.308 143.308 0 0 1-4.96 2.734c-.11.055-.216.114-.321.168-1.68.88-3.395 1.727-5.137 2.547-.113.055-.226.11-.34.16-1.742.82-3.52 1.61-5.32 2.371-.117.051-.234.098-.352.149a161.621 161.621 0 0 1-5.507 2.191c-.516.196-1.028.39-1.547.582a19.308 19.308 0 0 1-3.442.895c-3.25.535-6.613.238-9.765-.906-.457-.165-.907-.34-1.36-.508-.004-.004-.007-.008-.011-.008a159.59 159.59 0 0 1-5.793-2.3c-.047-.02-.094-.044-.14-.063a155.75 155.75 0 0 1-5.493-2.446c-.07-.035-.14-.07-.211-.101a146.004 146.004 0 0 1-5.254-2.606c-.074-.039-.152-.082-.227-.12a135.681 135.681 0 0 1-5.043-2.782l-.218-.129a130.42 130.42 0 0 1-4.852-2.96c-.062-.044-.125-.083-.187-.126a132.049 132.049 0 0 1-4.676-3.152 6.921 6.921 0 0 0-.145-.106 118.022 118.022 0 0 1-4.5-3.355c-.03-.024-.058-.047-.09-.07a120.541 120.541 0 0 1-4.328-3.563l-.015-.012C75.535 228.86 72.273 176.055 73.76 148.79zm237.16 332.61c0 5.847-4.754 10.601-10.598 10.601h-29.531v-67.516c0-5.523-4.477-10-10-10s-10 4.477-10 10V492H80.637v-67.516c0-5.523-4.477-10-10-10-5.524 0-10 4.477-10 10V492H31.109c-5.847 0-10.609-4.754-10.609-10.602V403.43c0-46.094 25.262-87.95 64.07-110.086L65.973 330.62a17.046 17.046 0 0 0-.332 14.566 17.046 17.046 0 0 0 11.023 9.532l9.246 2.59-2.379 4.007c-4.539 7.657-3.777 17.407 1.895 24.266l72.543 87.719c.031.039.058.078.09.117.046.055.097.105.148.16.04.047.086.094.129.14.137.15.273.294.418.434.02.016.035.036.05.051.044.043.087.078.13.121.156.14.316.278.476.41.055.043.11.09.164.133.004 0 .008.004.008.004l.074.063c.149.113.305.218.461.324.047.031.094.066.14.097.09.06.177.114.266.168.028.016.051.028.075.043l.328.188c.015.008.031.016.043.027a9.728 9.728 0 0 0 .465.227l.14.07c.16.07.324.14.488.207l.125.047c.434.164.88.297 1.333.398a11.787 11.787 0 0 0 .887.156c.054.009.113.016.167.024l.121.012c.07.008.133.02.203.023.106.012.215.008.325.016.164.008.324.02.492.02.34 0 .676-.024 1.012-.06l.132-.01c.063-.009.121-.02.184-.028.238-.031.477-.074.71-.121.06-.012.122-.024.18-.04.06-.011.122-.019.184-.035.371-.093.73-.21 1.086-.343.067-.028.133-.051.2-.078a7.738 7.738 0 0 0 .652-.29c.066-.027.129-.058.191-.09a.78.78 0 0 0 .082-.038c.031-.016.059-.036.09-.051.016-.008.031-.012.047-.02.066-.035.125-.078.191-.117l.082-.047c.067-.039.137-.074.207-.117l.063-.035c.039-.024.074-.05.113-.078.102-.067.203-.137.305-.207.101-.07.203-.14.304-.215.043-.031.082-.066.125-.098.086-.066.168-.136.254-.207a.348.348 0 0 1 .04-.031l.117-.094c.05-.043.093-.09.144-.136.07-.063.149-.13.219-.196.031-.031.062-.066.094-.097l.004-.004c.09-.086.175-.176.261-.27.102-.11.203-.215.301-.328.035-.043.07-.082.106-.125l.027-.027 72.586-87.77c5.672-6.86 6.433-16.61 1.89-24.27l-2.375-4.007 9.247-2.586a17.041 17.041 0 0 0 11.02-9.531 17.045 17.045 0 0 0-.33-14.567l-18.6-37.281c38.804 22.148 64.066 64 64.066 110.09v77.972zm0 0" fill="#fff"/><path d="M137.063 248.797c-1.88 5.195.812 10.926 6.003 12.805l4.88 1.765a52.266 52.266 0 0 0 17.761 3.106 52.266 52.266 0 0 0 17.73-3.094l4.918-1.774c5.196-1.875 7.887-7.605 6.012-12.8-1.87-5.196-7.601-7.89-12.797-6.012l-4.922 1.773a32.335 32.335 0 0 1-21.906-.007l-4.875-1.766c-5.191-1.875-10.926.812-12.804 6.004zM106.137 71.34a9.97 9.97 0 0 0 5.949-1.961c.219-.16 22.531-16.363 49.031-12.125 5.446.871 10.582-2.844 11.453-8.297.871-5.453-2.843-10.582-8.297-11.453-35.039-5.602-62.98 14.973-64.152 15.851-4.41 3.305-5.3 9.54-2.016 13.961a9.989 9.989 0 0 0 8.032 4.024zM72.3 85.305c.54.363 1.122.672 1.731.922a9.654 9.654 0 0 0 3.82.77c.649 0 1.31-.06 1.958-.192a10.449 10.449 0 0 0 1.87-.578 9.826 9.826 0 0 0 1.72-.922 9.508 9.508 0 0 0 1.523-1.239c.457-.46.879-.968 1.25-1.52a10.11 10.11 0 0 0 1.488-3.6c.13-.641.192-1.301.192-1.95a9.933 9.933 0 0 0-.762-3.82 9.896 9.896 0 0 0-.918-1.73 10.477 10.477 0 0 0-1.25-1.52 9.508 9.508 0 0 0-1.524-1.239 9.826 9.826 0 0 0-1.718-.921 9.98 9.98 0 0 0-5.781-.57c-.637.12-1.27.32-1.868.57-.61.25-1.191.558-1.73.921a9.31 9.31 0 0 0-1.52 1.239c-1.863 1.86-2.93 4.441-2.93 7.07s1.067 5.211 2.93 7.07c.457.457.969.88 1.52 1.239zm45.126 107.34a15.45 15.45 0 0 1 12.43 0c5.054 2.23 10.957-.063 13.183-5.114 2.23-5.054-.062-10.957-5.113-13.187a35.495 35.495 0 0 0-28.57 0c-5.055 2.23-7.344 8.133-5.114 13.187a10 10 0 0 0 13.184 5.114zm84.148.003a15.433 15.433 0 0 1 12.43 0 9.996 9.996 0 0 0 13.187-5.117c2.23-5.05-.062-10.953-5.113-13.183a35.48 35.48 0 0 0-28.57 0c-5.055 2.23-7.344 8.132-5.117 13.183 2.23 5.055 8.132 7.344 13.183 5.117zm0 0" fill="#fff"/></svg>