<svg xmlns="http://www.w3.org/2000/svg" height="512pt" viewBox="-87 0 512 512.001" width="512pt"><g fill-rule="evenodd" fill="#fff"><path d="M337.04 100.152a9.984 9.984 0 0 0-.176-1.61v-.003a10.497 10.497 0 0 0-.454-1.55 10.81 10.81 0 0 0-.496-1.134c-.012-.02-.02-.039-.031-.058a9.808 9.808 0 0 0-.692-1.102c-.062-.09-.129-.175-.195-.265a10.09 10.09 0 0 0-.867-1.008L243.637 2.93a10.09 10.09 0 0 0-1.008-.868c-.09-.066-.18-.136-.27-.199a9.476 9.476 0 0 0-1.093-.687c-.028-.016-.055-.024-.079-.04a10.413 10.413 0 0 0-1.113-.491 7.52 7.52 0 0 0-.316-.11 10.236 10.236 0 0 0-1.242-.344h-.008a10.6 10.6 0 0 0-1.274-.16c-.109-.004-.218-.011-.328-.015-.113-.004-.226-.016-.34-.016H10C4.477 0 0 4.477 0 10v428.023c0 5.524 4.477 10 10 10h150.555V502a10.002 10.002 0 0 0 15.316 8.473l38.086-23.895 38.086 23.895a10.013 10.013 0 0 0 10.156.28 10.004 10.004 0 0 0 5.16-8.753v-53.977h59.696c5.523 0 10-4.476 10-10v-337.53c0-.114-.012-.227-.016-.34zm-90.474-66.007l56.348 56.347h-56.348zM155.621 308.87c-.703-1.91-1.848-5.031-1.875-6.309.781-.968 3.492-2.683 5.152-3.73 3.563-2.25 7.602-4.805 10.532-8.797 2.957-4.035 4.16-8.695 5.222-12.805.465-1.796 1.215-4.699 1.856-5.796.351-.075 1.09-.18 2.476-.18 1.114 0 2.36.062 3.68.129 1.516.074 3.078.152 4.711.152 3.602 0 6.508-.406 9.145-1.285 4.605-1.531 8.289-4.496 11.539-7.113 1.796-1.446 4.804-3.867 5.851-4.016 1.145.149 4.149 2.57 5.945 4.016 3.25 2.617 6.938 5.582 11.543 7.113 2.637.879 5.54 1.285 9.145 1.285 1.629 0 3.195-.078 4.707-.152 1.32-.067 2.566-.13 3.684-.13 1.386 0 2.12.102 2.476.18.64 1.098 1.39 4 1.852 5.797 1.062 4.11 2.27 8.77 5.226 12.805 2.926 3.992 6.965 6.543 10.532 8.797 1.656 1.05 4.367 2.762 5.148 3.73-.027 1.278-1.172 4.399-1.871 6.31-1.488 4.05-3.172 8.644-3.172 13.733 0 5.09 1.684 9.684 3.168 13.739.703 1.91 1.848 5.031 1.875 6.308-.781.97-3.492 2.68-5.148 3.73-3.567 2.25-7.606 4.805-10.532 8.798-2.957 4.035-4.164 8.695-5.226 12.804-.461 1.793-1.215 4.7-1.852 5.797-.355.074-1.09.18-2.476.18-1.118 0-2.364-.063-3.684-.129-1.512-.074-3.078-.152-4.707-.152-3.606 0-6.508.406-9.145 1.285-4.605 1.531-8.293 4.5-11.543 7.113-1.77 1.43-4.722 3.8-5.898 4.012-1.176-.211-4.125-2.582-5.895-4.012-3.253-2.613-6.937-5.582-11.542-7.113-2.637-.88-5.543-1.285-9.145-1.285-1.629 0-3.195.078-4.71.152-1.317.066-2.563.129-3.68.129-1.387 0-2.122-.106-2.477-.18-.64-1.097-1.39-4-1.856-5.797-1.058-4.109-2.265-8.77-5.222-12.804-2.926-3.993-6.965-6.547-10.532-8.797-1.656-1.047-4.367-2.762-5.148-3.73.027-1.274 1.172-4.4 1.871-6.31 1.488-4.05 3.172-8.644 3.172-13.734 0-5.093-1.688-9.687-3.172-13.738zm91.738 175.05l-28.086-17.62a10.022 10.022 0 0 0-10.632 0l-28.086 17.62v-89.99c1.062-.032 2.105-.07 3.117-.121 1.324-.07 2.574-.133 3.703-.133 1.773 0 2.531.164 2.824.261 1.192.399 3.48 2.243 5.32 3.723 4.668 3.758 10.477 8.434 18.438 8.434 7.961 0 13.77-4.676 18.438-8.434 1.84-1.48 4.128-3.324 5.316-3.719.297-.097 1.055-.261 2.828-.261 1.129 0 2.379.062 3.703.129 1.012.05 2.055.093 3.113.12v89.993zm20-55.898V385.87c2.973-4.039 4.215-8.82 5.266-12.883.55-2.133 1.305-5.05 1.992-5.984.684-.938 3.227-2.543 5.082-3.715 4.922-3.11 11.047-6.98 13.48-14.3 2.407-7.223-.097-14.048-2.109-19.532-.914-2.488-1.949-5.312-1.949-6.852 0-1.539 1.035-4.359 1.95-6.847 2.011-5.485 4.515-12.313 2.109-19.535-2.434-7.317-8.559-11.188-13.48-14.297-1.856-1.172-4.4-2.781-5.083-3.711-.687-.938-1.441-3.856-1.992-5.988-1.438-5.567-3.227-12.497-9.352-16.989-4.875-3.57-10.52-3.984-14.343-3.984-1.618 0-3.18.078-4.688.156-1.324.067-2.574.13-3.699.13-1.777 0-2.535-.165-2.828-.263-1.188-.394-3.477-2.238-5.317-3.722-4.671-3.754-10.48-8.43-18.441-8.43-7.957 0-13.77 4.676-18.437 8.43-1.84 1.48-4.13 3.328-5.317 3.722-.293.098-1.055.262-2.828.262-1.125 0-2.379-.062-3.703-.133-1.508-.074-3.067-.152-4.688-.152-3.82 0-9.464.414-14.336 3.984-6.128 4.492-7.921 11.422-9.359 16.989-.55 2.132-1.305 5.05-1.988 5.984-.688.934-3.23 2.543-5.086 3.715-4.922 3.11-11.043 6.98-13.48 14.297-2.407 7.226.097 14.05 2.109 19.535.914 2.488 1.949 5.308 1.949 6.847 0 1.54-1.035 4.364-1.95 6.852-2.011 5.484-4.515 12.309-2.109 19.535 2.438 7.317 8.563 11.188 13.48 14.297 1.86 1.172 4.4 2.781 5.087 3.715.683.933 1.437 3.851 1.988 5.984 1.05 4.063 2.297 8.848 5.27 12.883v42.152H20V20h206.566v80.492c0 5.524 4.477 10 10 10h80.489v317.531zm0 0"/><path d="M58.863 110.492H187.7c5.52 0 10-4.476 10-10 0-5.523-4.48-10-10-10H58.863c-5.523 0-10 4.477-10 10 0 5.524 4.48 10 10 10zm220.446 30.477H58.863c-5.523 0-10 4.476-10 10s4.477 10 10 10H279.31c5.523 0 10-4.477 10-10s-4.477-10-10-10zm-40 50.476H58.863c-5.523 0-10 4.48-10 10 0 5.524 4.477 10 10 10H239.31c5.523 0 10-4.476 10-10 0-5.52-4.477-10-10-10zm40 0c-5.508 0-10 4.493-10 10 0 5.508 4.492 10 10 10 5.511 0 10-4.492 10-10 0-5.507-4.489-10-10-10zm0 0"/></g></svg>