<svg xmlns="http://www.w3.org/2000/svg" width="512" height="512"><path d="M255.987 20c-5.522 0-10 4.477-10 10v59.493c0 5.523 4.478 10 10 10s10-4.477 10-10V30c0-5.523-4.478-10-10-10zm-56.663 85.381l-23.926-23.905c-3.909-3.904-10.239-3.901-14.143.006-3.903 3.907-3.9 10.238.006 14.142l23.927 23.905a9.97 9.97 0 0 0 7.068 2.926 9.97 9.97 0 0 0 7.074-2.932c3.903-3.907 3.9-10.238-.006-14.142zM350.738 81.5c-3.907-3.905-10.239-3.901-14.143.005l-25.437 25.457c-3.903 3.907-3.9 10.238.006 14.142a9.969 9.969 0 0 0 7.069 2.927 9.97 9.97 0 0 0 7.074-2.932l25.437-25.457c3.903-3.907 3.9-10.238-.006-14.142zM446.5 284h-8.07c6.586-8.585 10.513-19.312 10.513-30.943v-14.113C448.943 210.853 426.09 188 398 188c-28.09 0-50.943 22.853-50.943 50.943v10.971l-75.231-75.232a15.075 15.075 0 0 0-15.825-3.524 15.076 15.076 0 0 0-15.826 3.525l-75.23 75.231v-10.971C164.943 210.853 142.09 188 114 188s-50.943 22.853-50.943 50.943v14.113c0 11.632 3.927 22.358 10.513 30.943H65.5C29.383 284 0 313.383 0 349.5V482c0 5.523 4.478 10 10 10h42.25c1 0 1.964-.151 2.875-.424A9.997 9.997 0 0 0 58 492h112c5.522 0 10-4.477 10-10v-34c0-5.523-4.478-10-10-10s-10 4.477-10 10v24H68V358.053c0-5.523-4.478-10-10-10s-10 4.477-10 10V472H20V349.5c0-25.089 20.411-45.5 45.5-45.5H135a9.97 9.97 0 0 0 7.052-2.911l.02-.017 103.869-103.87c-.681 20.768-7.141 40.771-18.787 58.068l-65.448 97.198a10.006 10.006 0 0 0-1.705 5.585V369c0 5.523 4.478 10 10 10s10-4.477 10-10v-7.895l63.743-94.666a130.881 130.881 0 0 0 12.257-22.808 130.814 130.814 0 0 0 12.257 22.808L332 361.105V482c0 5.523 4.478 10 10 10h112c1 0 1.964-.151 2.875-.424a9.997 9.997 0 0 0 2.875.424H502c5.522 0 10-4.477 10-10V349.5c0-36.117-29.383-65.5-65.5-65.5zm-301.557-30.944c0 17.063-13.88 30.944-30.943 30.944s-30.943-13.881-30.943-30.943v-14.113C83.057 221.881 96.938 208 114 208s30.943 13.881 30.943 30.943v14.113zm222.114-14.113C367.057 221.881 380.938 208 398 208s30.943 13.881 30.943 30.943v14.113c0 17.063-13.88 30.944-30.943 30.944s-30.943-13.881-30.943-30.943v-14.114zM492 472h-28v-74c0-5.523-4.478-10-10-10s-10 4.477-10 10v74h-92V358.053a10 10 0 0 0-1.705-5.585l-65.448-97.197c-11.646-17.297-18.106-37.3-18.787-58.068l103.869 103.869c.132.132.256.243.376.342a9.95 9.95 0 0 0 6.695 2.588h69.5c25.089 0 45.5 20.411 45.5 45.5V472z" fill="#FFF"/><path d="M461.069 350.98c-1.859-1.86-4.439-2.93-7.069-2.93s-5.21 1.07-7.07 2.93c-1.86 1.86-2.93 4.44-2.93 7.07s1.069 5.21 2.93 7.07c1.86 1.86 4.44 2.93 7.07 2.93s5.21-1.07 7.069-2.93c1.86-1.86 2.931-4.44 2.931-7.07s-1.07-5.2-2.931-7.07zm-284 52.95C175.21 402.07 172.63 401 170 401s-5.21 1.07-7.07 2.93S160 408.37 160 411s1.069 5.21 2.93 7.07c1.861 1.86 4.44 2.93 7.07 2.93s5.21-1.07 7.069-2.93c1.86-1.86 2.931-4.44 2.931-7.07s-1.07-5.21-2.931-7.07z" fill="#FFF"/></svg>